<?xml version="1.0" encoding="UTF-8"?>
<!DOCTYPE svg PUBLIC "-//W3C//DTD SVG 1.1//EN" "http://www.w3.org/Graphics/SVG/1.1/DTD/svg11.dtd">
<svg xmlns="http://www.w3.org/2000/svg" version="1.1" width="500px" height="500px" style="shape-rendering:geometricPrecision; text-rendering:geometricPrecision; image-rendering:optimizeQuality; fill-rule:evenodd; clip-rule:evenodd" xmlns:xlink="http://www.w3.org/1999/xlink">
<g><path style="opacity:0.956" fill="#fdfdfd" d="M 101.5,243.5 C 101.5,243.833 101.5,244.167 101.5,244.5C 101.5,244.833 101.5,245.167 101.5,245.5C 100.081,246.451 98.4147,246.784 96.5,246.5C 95.5084,246.328 94.8417,246.662 94.5,247.5C 93.0011,245.637 91.3344,244.971 89.5,245.5C 91.8362,243.927 91.8362,242.594 89.5,241.5C 88.1266,241.657 86.7932,241.49 85.5,241C 86.7911,239.708 86.7911,238.542 85.5,237.5C 85.5654,237.062 85.3988,236.728 85,236.5C 80.9814,239.255 76.8147,241.589 72.5,243.5C 72.5858,244.496 72.2524,245.329 71.5,246C 72.1667,246.667 72.8333,247.333 73.5,248C 86.6087,247.663 99.7754,248.163 113,249.5C 113.464,248.906 113.631,248.239 113.5,247.5C 115.5,247.5 117.5,247.5 119.5,247.5C 118.277,262.845 116.943,278.178 115.5,293.5C 88.5,293.5 61.5,293.5 34.5,293.5C 34.6567,292.127 34.49,290.793 34,289.5C 32.3005,290.406 30.4672,290.739 28.5,290.5C 28.2,285.901 28.5333,281.401 29.5,277C 27.7444,276.798 26.0777,276.298 24.5,275.5C 25.38,272.223 26.0467,268.889 26.5,265.5C 24.9544,259.534 23.6211,253.534 22.5,247.5C 24.4672,247.261 26.3005,247.594 28,248.5C 28.3333,247.167 28.6667,245.833 29,244.5C 29.3333,245.167 29.6667,245.833 30,246.5C 30.934,241.072 31.7673,235.905 32.5,231C 34.2555,230.86 35.9222,231.36 37.5,232.5C 38.6721,232.081 39.6721,231.415 40.5,230.5C 38.5,227.167 36.5,223.833 34.5,220.5C 47.4208,212.455 60.5874,204.788 74,197.5C 82.941,213.062 92.1077,228.396 101.5,243.5 Z M 73.5,210.5 C 75.5492,210.706 75.8825,211.539 74.5,213C 65.8333,218 57.1667,223 48.5,228C 47.365,228.749 46.365,228.583 45.5,227.5C 54.8507,221.806 64.184,216.14 73.5,210.5 Z M 71.5,219.5 C 73.0281,219.517 73.5281,220.184 73,221.5C 65.4183,225.707 57.9183,230.04 50.5,234.5C 49.6919,234.192 49.0253,233.692 48.5,233C 56.2297,228.474 63.8964,223.974 71.5,219.5 Z M 78.5,223.5 C 79.2891,223.783 79.9558,224.283 80.5,225C 72.3324,230.252 63.9991,235.252 55.5,240C 54.365,240.749 53.365,240.583 52.5,239.5C 61.1946,234.156 69.8613,228.822 78.5,223.5 Z M 44.5,239.5 C 47.0866,240.816 50.0866,241.483 53.5,241.5C 56.5,241.333 59.5,241.167 62.5,241C 66.6262,239.034 70.6262,236.868 74.5,234.5C 74.8333,234.833 75.1667,235.167 75.5,235.5C 73.3929,238.061 70.7262,239.894 67.5,241C 68.8333,241.333 70.1667,241.667 71.5,242C 61.5,242.667 51.5,242.667 41.5,242C 42.0779,240.583 43.0779,239.75 44.5,239.5 Z M 85.5,237.5 C 82.412,240.984 78.5786,243.65 74,245.5C 73.7216,244.584 73.2216,243.918 72.5,243.5C 76.8147,241.589 80.9814,239.255 85,236.5C 85.3988,236.728 85.5654,237.062 85.5,237.5 Z M 89.5,241.5 C 91.8362,242.594 91.8362,243.927 89.5,245.5C 86.6812,247.097 83.6812,247.597 80.5,247C 83.8981,245.643 86.8981,243.81 89.5,241.5 Z M 38.5,242.5 C 41.0009,242.511 41.1676,243.178 39,244.5C 38.5357,243.906 38.369,243.239 38.5,242.5 Z M 94.5,262.5 C 104.177,262.015 109.844,266.515 111.5,276C 107.585,280.615 106.585,279.781 108.5,273.5C 106.252,265.962 101.418,263.295 94,265.5C 92.2053,264.281 92.3719,263.281 94.5,262.5 Z M 88.5,268.5 C 89.7537,270.357 89.7537,272.357 88.5,274.5C 89.0049,277.188 90.3382,279.355 92.5,281C 96.4281,283.176 100.428,284.176 104.5,284C 100.013,286.039 95.6798,285.706 91.5,283C 88.693,279.702 86.693,276.035 85.5,272C 86.7101,270.961 87.7101,269.794 88.5,268.5 Z"/></g>
<g><path style="opacity:0.955" fill="#fdfdfd" d="M 303.5,202.5 C 315.502,200.239 323.002,204.906 326,216.5C 326.499,221.823 326.666,227.156 326.5,232.5C 322.167,232.5 317.833,232.5 313.5,232.5C 313.666,227.821 313.499,223.155 313,218.5C 311.238,214.134 308.571,213.467 305,216.5C 303.496,220.039 303.163,223.705 304,227.5C 311.242,236.319 318.242,245.319 325,254.5C 328.622,265.333 328.289,275.999 324,286.5C 322.062,289.106 319.562,290.939 316.5,292C 302.855,295.77 294.355,290.937 291,277.5C 290.5,271.175 290.334,264.842 290.5,258.5C 294.833,258.5 299.167,258.5 303.5,258.5C 303.334,263.844 303.501,269.177 304,274.5C 304.945,280.616 307.945,281.949 313,278.5C 315.768,269.571 314.101,261.571 308,254.5C 302.256,249.427 297.256,243.76 293,237.5C 289.667,228.167 289.667,218.833 293,209.5C 295.701,205.748 299.201,203.415 303.5,202.5 Z"/></g>
<g><path style="opacity:0.972" fill="#fefefe" d="M 147.5,203.5 C 155.84,203.334 164.173,203.5 172.5,204C 179.739,205.638 183.906,210.138 185,217.5C 185.667,237.167 185.667,256.833 185,276.5C 184.13,283.765 180.297,288.598 173.5,291C 164.84,291.5 156.173,291.666 147.5,291.5C 147.5,262.167 147.5,232.833 147.5,203.5 Z M 161.5,214.5 C 165.888,213.943 169.055,215.61 171,219.5C 171.667,238.5 171.667,257.5 171,276.5C 170.535,277.931 169.701,279.097 168.5,280C 166.19,280.497 163.857,280.663 161.5,280.5C 161.5,258.5 161.5,236.5 161.5,214.5 Z"/></g>
<g><path style="opacity:0.95" fill="#fefefe" d="M 210.5,215.5 C 222.387,214.179 229.887,219.179 233,230.5C 233.667,246.167 233.667,261.833 233,277.5C 230.001,290.596 221.834,295.429 208.5,292C 200.269,288.736 196.102,282.57 196,273.5C 195.087,258.787 195.42,244.12 197,229.5C 199.052,222.284 203.552,217.617 210.5,215.5 Z M 212.5,227.5 C 215.547,226.855 217.713,227.855 219,230.5C 219.667,246.167 219.667,261.833 219,277.5C 217.365,281.77 214.865,282.437 211.5,279.5C 210.811,277.556 210.311,275.556 210,273.5C 209.333,260.833 209.333,248.167 210,235.5C 210.097,232.518 210.93,229.851 212.5,227.5 Z"/></g>
<g><path style="opacity:0.928" fill="#fdfdfd" d="M 258.5,215.5 C 270.755,213.693 278.255,218.693 281,230.5C 281.499,235.823 281.666,241.156 281.5,246.5C 276.833,246.5 272.167,246.5 267.5,246.5C 267.666,240.824 267.499,235.157 267,229.5C 263.844,226.601 261.178,226.935 259,230.5C 258.333,246.5 258.333,262.5 259,278.5C 261.667,282.5 264.333,282.5 267,278.5C 267.499,272.843 267.666,267.176 267.5,261.5C 272.167,261.5 276.833,261.5 281.5,261.5C 281.774,268.23 281.274,274.897 280,281.5C 278.474,287.026 274.974,290.526 269.5,292C 256.166,295.429 247.999,290.596 245,277.5C 243.693,261.811 243.693,246.144 245,230.5C 246.61,222.731 251.11,217.731 258.5,215.5 Z"/></g>
<g><path style="opacity:0.973" fill="#fdfdfd" d="M 401.5,215.5 C 408.709,214.497 413.875,217.163 417,223.5C 418.447,246.122 418.947,268.789 418.5,291.5C 413.833,291.5 409.167,291.5 404.5,291.5C 404.667,271.497 404.5,251.497 404,231.5C 400.667,226.167 397.333,226.167 394,231.5C 393.5,251.497 393.333,271.497 393.5,291.5C 388.833,291.5 384.167,291.5 379.5,291.5C 379.5,266.5 379.5,241.5 379.5,216.5C 384.167,216.5 388.833,216.5 393.5,216.5C 393.34,218.199 393.506,219.866 394,221.5C 396.114,218.879 398.614,216.879 401.5,215.5 Z"/></g>
<g><path style="opacity:0.938" fill="#fefefe" d="M 443.5,215.5 C 456.65,213.828 464.15,219.494 466,232.5C 466.499,237.155 466.666,241.821 466.5,246.5C 461.833,246.5 457.167,246.5 452.5,246.5C 452.666,240.824 452.499,235.157 452,229.5C 445.759,226.035 442.759,228.035 443,235.5C 442.333,248.167 442.333,260.833 443,273.5C 443.151,276.119 443.985,278.453 445.5,280.5C 448.757,282.106 450.924,281.106 452,277.5C 452.499,272.177 452.666,266.844 452.5,261.5C 457.167,261.5 461.833,261.5 466.5,261.5C 467.742,271.465 465.742,280.632 460.5,289C 452.722,293.263 444.722,293.597 436.5,290C 431.359,284.969 428.859,278.802 429,271.5C 428.134,257.463 428.468,243.463 430,229.5C 431.356,221.646 435.856,216.979 443.5,215.5 Z"/></g>
<g><path style="opacity:0.942" fill="#fdfdfd" d="M 332.5,216.5 C 337.322,215.935 341.822,216.601 346,218.5C 348.172,236.543 350.505,254.543 353,272.5C 354.871,253.83 356.704,235.163 358.5,216.5C 363.214,216.173 367.88,216.507 372.5,217.5C 367.669,245.155 362.835,272.821 358,300.5C 356.622,303.108 354.455,304.608 351.5,305C 345.843,305.499 340.176,305.666 334.5,305.5C 334.5,302.167 334.5,298.833 334.5,295.5C 337.881,295.54 341.214,295.207 344.5,294.5C 340.934,268.439 336.934,242.439 332.5,216.5 Z"/></g>
<g><path style="opacity:0.685" fill="#f6f9f7" d="M 85.5,237.5 C 86.7911,238.542 86.7911,239.708 85.5,241C 86.7932,241.49 88.1266,241.657 89.5,241.5C 86.8981,243.81 83.8981,245.643 80.5,247C 83.6812,247.597 86.6812,247.097 89.5,245.5C 91.3344,244.971 93.0011,245.637 94.5,247.5C 95.4916,247.672 96.1583,247.338 96.5,246.5C 98.4147,246.784 100.081,246.451 101.5,245.5C 102.833,245.167 102.833,244.833 101.5,244.5C 101.5,244.167 101.5,243.833 101.5,243.5C 104.839,243.89 108.173,244.39 111.5,245C 112.066,245.995 112.733,246.828 113.5,247.5C 113.631,248.239 113.464,248.906 113,249.5C 99.7754,248.163 86.6087,247.663 73.5,248C 72.8333,247.333 72.1667,246.667 71.5,246C 72.2524,245.329 72.5858,244.496 72.5,243.5C 73.2216,243.918 73.7216,244.584 74,245.5C 78.5786,243.65 82.412,240.984 85.5,237.5 Z"/></g>
</svg>
