<?xml version="1.0" encoding="UTF-8"?>
<!DOCTYPE svg PUBLIC "-//W3C//DTD SVG 1.1//EN" "http://www.w3.org/Graphics/SVG/1.1/DTD/svg11.dtd">
<svg xmlns="http://www.w3.org/2000/svg" version="1.1" width="500px" height="500px" style="shape-rendering:geometricPrecision; text-rendering:geometricPrecision; image-rendering:optimizeQuality; fill-rule:evenodd; clip-rule:evenodd" xmlns:xlink="http://www.w3.org/1999/xlink">
<g><path style="opacity:1" fill="#fbfbfb" d="M 344.5,225.5 C 349.429,235.188 354.763,244.688 360.5,254C 353.476,254.831 346.476,254.664 339.5,253.5C 339.167,252.5 338.5,251.833 337.5,251.5C 335.833,252.333 334.167,253.167 332.5,254C 323.5,254.667 314.5,254.667 305.5,254C 311.997,250.586 318.33,246.919 324.5,243C 322.793,239.752 320.96,236.585 319,233.5C 307.085,240.207 295.252,247.04 283.5,254C 276.174,254.5 268.841,254.666 261.5,254.5C 261.323,252.019 262.323,250.186 264.5,249C 278.331,241.252 291.998,233.252 305.5,225C 304.023,221.537 301.856,218.704 299,216.5C 285.52,223.907 272.186,231.574 259,239.5C 257.266,237.549 255.099,236.549 252.5,236.5C 248.5,235.833 244.5,235.167 240.5,234.5C 250.22,229.222 259.72,223.556 269,217.5C 269.315,216.092 268.982,214.759 268,213.5C 266.959,211.415 265.459,209.748 263.5,208.5C 247.466,217.556 231.466,226.556 215.5,235.5C 206.983,235.826 198.65,235.493 190.5,234.5C 222.17,216.668 253.503,198.335 284.5,179.5C 282.667,176.5 280.833,173.5 279,170.5C 246.885,188.803 215.051,207.47 183.5,226.5C 184.86,229.22 186.193,231.886 187.5,234.5C 181.355,235.49 175.022,235.823 168.5,235.5C 158.93,220.034 149.596,204.368 140.5,188.5C 135.678,180.194 130.845,171.861 126,163.5C 125.289,161.633 125.789,160.133 127.5,159C 171.833,133.5 216.167,108 260.5,82.5C 288.764,130.03 316.764,177.696 344.5,225.5 Z"/></g>
<g><path style="opacity:1" fill="#0d080f" d="M 350.5,228.5 C 348.397,227.65 346.397,226.65 344.5,225.5C 316.764,177.696 288.764,130.03 260.5,82.5C 216.167,108 171.833,133.5 127.5,159C 125.789,160.133 125.289,161.633 126,163.5C 130.845,171.861 135.678,180.194 140.5,188.5C 138.856,188.81 137.856,189.81 137.5,191.5C 130.689,181.227 124.356,170.56 118.5,159.5C 166.173,131.328 214.173,103.661 262.5,76.5C 292.362,126.894 321.695,177.561 350.5,228.5 Z"/></g>
<g><path style="opacity:1" fill="#080808" d="M 261.5,123.5 C 262.822,123.33 263.989,123.663 265,124.5C 266.167,126.833 267.333,129.167 268.5,131.5C 234.198,152.323 199.531,172.656 164.5,192.5C 161.132,189.768 159.466,186.434 159.5,182.5C 193.563,162.807 227.563,143.14 261.5,123.5 Z"/></g>
<g><path style="opacity:1" fill="#080808" d="M 254.5,155.5 C 255.822,155.33 256.989,155.663 258,156.5C 259.626,158.917 261.126,161.417 262.5,164C 234.066,180.633 205.566,197.133 177,213.5C 176.228,213.355 175.561,213.022 175,212.5C 173.877,209.751 172.377,207.251 170.5,205C 198.728,188.726 226.728,172.226 254.5,155.5 Z"/></g>
<g><path style="opacity:1" fill="#080808" d="M 190.5,234.5 C 189.5,235.833 188.5,235.833 187.5,234.5C 186.193,231.886 184.86,229.22 183.5,226.5C 215.051,207.47 246.885,188.803 279,170.5C 280.833,173.5 282.667,176.5 284.5,179.5C 253.503,198.335 222.17,216.668 190.5,234.5 Z"/></g>
<g><path style="opacity:0.995" fill="#0c090d" d="M 140.5,188.5 C 149.596,204.368 158.93,220.034 168.5,235.5C 184.167,236.833 199.833,236.833 215.5,235.5C 231.466,226.556 247.466,217.556 263.5,208.5C 265.459,209.748 266.959,211.415 268,213.5C 268.982,214.759 269.315,216.092 269,217.5C 259.72,223.556 250.22,229.222 240.5,234.5C 239.527,234.987 238.527,235.487 237.5,236C 242.489,236.499 247.489,236.666 252.5,236.5C 255.099,236.549 257.266,237.549 259,239.5C 272.186,231.574 285.52,223.907 299,216.5C 301.856,218.704 304.023,221.537 305.5,225C 291.998,233.252 278.331,241.252 264.5,249C 262.323,250.186 261.323,252.019 261.5,254.5C 268.841,254.666 276.174,254.5 283.5,254C 295.252,247.04 307.085,240.207 319,233.5C 320.96,236.585 322.793,239.752 324.5,243C 318.33,246.919 311.997,250.586 305.5,254C 314.5,254.667 323.5,254.667 332.5,254C 334.167,253.167 335.833,252.333 337.5,251.5C 338.5,251.833 339.167,252.5 339.5,253.5C 346.476,254.664 353.476,254.831 360.5,254C 354.763,244.688 349.429,235.188 344.5,225.5C 346.397,226.65 348.397,227.65 350.5,228.5C 352.637,231.493 354.637,234.66 356.5,238C 370.731,241.15 385.064,243.65 399.5,245.5C 399.457,248.587 399.29,251.587 399,254.5C 407.178,253.62 415.345,253.287 423.5,253.5C 423.833,255.667 424.167,257.833 424.5,260C 419.803,314.17 415.136,368.337 410.5,422.5C 313.499,422.667 216.499,422.5 119.5,422C 118.321,417.952 116.988,413.952 115.5,410C 109.5,409.667 103.5,409.333 97.5,409C 96.565,406.619 96.2317,404.119 96.5,401.5C 97.1761,389.765 97.8428,377.931 98.5,366C 97.9341,365.005 97.2674,364.172 96.5,363.5C 96.38,362.414 95.7133,361.747 94.5,361.5C 91.0689,360.985 87.7356,360.152 84.5,359C 87.2048,346.275 89.5381,333.441 91.5,320.5C 86.1442,298.93 80.4776,277.43 74.5,256C 74.6301,254.941 75.1301,254.108 76,253.5C 82.763,253.195 89.5963,253.528 96.5,254.5C 96.335,251.15 96.5017,247.817 97,244.5C 99.7191,243.556 102.552,243.223 105.5,243.5C 107.856,227.362 110.856,211.362 114.5,195.5C 123.001,197.112 131.501,198.778 140,200.5C 140.5,200.167 141,199.833 141.5,199.5C 139.703,197.045 138.37,194.378 137.5,191.5C 137.856,189.81 138.856,188.81 140.5,188.5 Z"/></g>
<g><path style="opacity:1" fill="#fbfbfb" d="M 116.5,201.5 C 126.16,202.931 135.826,204.431 145.5,206C 149.625,212.416 153.625,218.916 157.5,225.5C 155.013,225.782 152.347,225.782 149.5,225.5C 149.11,228.839 148.61,232.173 148,235.5C 140.874,236.06 136.207,239.727 134,246.5C 130.923,284.844 127.757,323.178 124.5,361.5C 113.099,360.266 101.765,358.6 90.5,356.5C 99.1664,304.835 107.833,253.169 116.5,201.5 Z"/></g>
<g><path style="opacity:1" fill="#c2c2c2" d="M 159.5,230.5 C 161.179,232 162.512,233.833 163.5,236C 162.207,236.49 160.873,236.657 159.5,236.5C 159.5,234.5 159.5,232.5 159.5,230.5 Z"/></g>
<g><path style="opacity:1" fill="#7e7e7e" d="M 187.5,234.5 C 188.5,235.833 189.5,235.833 190.5,234.5C 198.65,235.493 206.983,235.826 215.5,235.5C 199.833,236.833 184.167,236.833 168.5,235.5C 175.022,235.823 181.355,235.49 187.5,234.5 Z"/></g>
<g><path style="opacity:1" fill="#808080" d="M 240.5,234.5 C 244.5,235.167 248.5,235.833 252.5,236.5C 247.489,236.666 242.489,236.499 237.5,236C 238.527,235.487 239.527,234.987 240.5,234.5 Z"/></g>
<g><path style="opacity:1" fill="#fefefe" d="M 144.5,240.5 C 180.502,240.333 216.502,240.5 252.5,241C 254.667,241.833 256.167,243.333 257,245.5C 256.876,250.136 256.71,254.802 256.5,259.5C 310.5,259.5 364.5,259.5 418.5,259.5C 414.552,311.874 410.219,364.208 405.5,416.5C 311.833,416.5 218.167,416.5 124.5,416.5C 129.179,360.157 134.012,303.823 139,247.5C 139.967,244.379 141.8,242.046 144.5,240.5 Z"/></g>
<g><path style="opacity:1" fill="#f5f6f5" d="M 359.5,243.5 C 371.013,246.241 382.68,248.241 394.5,249.5C 394.5,251.167 394.5,252.833 394.5,254.5C 384.828,254.666 375.161,254.5 365.5,254C 363.097,250.689 361.097,247.189 359.5,243.5 Z"/></g>
<g><path style="opacity:1" fill="#e2e4e0" d="M 101.5,247.5 C 102.5,247.5 103.5,247.5 104.5,247.5C 102.192,271.376 101.192,271.376 101.5,247.5 Z"/></g>
<g><path style="opacity:1" fill="#fafafa" d="M 81.5,259.5 C 86.8333,259.5 92.1667,259.5 97.5,259.5C 97.6665,270.505 97.4998,281.505 97,292.5C 96.1844,297.546 95.1844,302.546 94,307.5C 89.7305,291.525 85.5639,275.525 81.5,259.5 Z"/></g>
<g><path style="opacity:1" fill="#0a0a0a" d="M 335.5,307.5 C 364.259,304.606 382.426,316.94 390,344.5C 390.498,347.482 390.665,350.482 390.5,353.5C 392.527,353.338 394.527,353.505 396.5,354C 390.667,360.5 384.833,367 379,373.5C 377.868,364.52 377.534,355.52 378,346.5C 379.368,348.815 380.201,348.815 380.5,346.5C 376.214,327.881 364.548,317.881 345.5,316.5C 340.219,316.822 335.219,318.156 330.5,320.5C 328.833,317.833 327.167,315.167 325.5,312.5C 328.727,310.436 332.06,308.77 335.5,307.5 Z"/></g>
<g><path style="opacity:1" fill="#0b0b0b" d="M 316.5,325.5 C 318.301,333.948 318.801,342.615 318,351.5C 316.632,349.185 315.799,349.185 315.5,351.5C 318.407,367.512 327.741,377.345 343.5,381C 351.25,382.341 358.584,381.174 365.5,377.5C 367.293,380.251 368.959,383.084 370.5,386C 344.826,396.33 324.66,389.83 310,366.5C 306.902,359.844 305.402,352.844 305.5,345.5C 303.143,345.663 300.81,345.497 298.5,345C 305.074,338.93 311.074,332.43 316.5,325.5 Z"/></g>
<g><path style="opacity:1" fill="#f7f7f6" d="M 101.5,362.5 C 108.833,363.5 116.167,364.5 123.5,365.5C 122.83,378.859 121.83,392.192 120.5,405.5C 114.167,405.5 107.833,405.5 101.5,405.5C 101.5,391.167 101.5,376.833 101.5,362.5 Z"/></g>
<g><path style="opacity:0.024" fill="#0d0028" d="M 96.5,363.5 C 97.2674,364.172 97.9341,365.005 98.5,366C 97.8428,377.931 97.1761,389.765 96.5,401.5C 96.5,388.833 96.5,376.167 96.5,363.5 Z"/></g>
</svg>
